<svg width="425" height="611" viewBox="0 0 425 611" fill="none" xmlns="http://www.w3.org/2000/svg">
<path d="M43.5215 469.908H76.9139V488.103H43.5215V469.908ZM45.2339 497.949H82.6934V517H20.4036V442.081H81.302V461.132H45.2339V497.949ZM89.0422 495.166V476.972H121.15V495.166H89.0422ZM170.773 518.712C164.78 518.712 159.214 517.785 154.077 515.93C149.011 514.003 144.587 511.292 140.806 507.796C137.095 504.299 134.206 500.161 132.137 495.381C130.067 490.6 129.033 485.32 129.033 479.541C129.033 473.761 130.067 468.481 132.137 463.701C134.206 458.92 137.095 454.782 140.806 451.285C144.587 447.789 149.011 445.114 154.077 443.258C159.214 441.332 164.78 440.369 170.773 440.369C178.122 440.369 184.615 441.653 190.252 444.222C195.96 446.79 200.669 450.501 204.38 455.352L188.433 469.587C186.221 466.804 183.759 464.664 181.048 463.165C178.408 461.596 175.411 460.811 172.058 460.811C169.418 460.811 167.027 461.239 164.887 462.095C162.746 462.951 160.891 464.2 159.321 465.841C157.823 467.482 156.646 469.48 155.789 471.835C154.933 474.118 154.505 476.686 154.505 479.541C154.505 482.395 154.933 484.999 155.789 487.354C156.646 489.637 157.823 491.599 159.321 493.24C160.891 494.881 162.746 496.13 164.887 496.986C167.027 497.842 169.418 498.27 172.058 498.27C175.411 498.27 178.408 497.521 181.048 496.023C183.759 494.453 186.221 492.277 188.433 489.494L204.38 503.729C200.669 508.509 195.96 512.219 190.252 514.859C184.615 517.428 178.122 518.712 170.773 518.712ZM234.79 469.908H268.183V488.103H234.79V469.908ZM236.503 497.949H273.962V517H211.673V442.081H272.571V461.132H236.503V497.949ZM283.686 517V442.081H308.944V497.414H342.765V517H283.686ZM349.742 517V442.081H375V497.414H408.821V517H349.742ZM119.545 596.84C115.625 596.84 111.868 596.327 108.275 595.3C104.681 594.227 101.788 592.85 99.5948 591.17L103.445 582.63C105.545 584.123 108.018 585.36 110.865 586.34C113.758 587.273 116.675 587.74 119.615 587.74C121.855 587.74 123.651 587.53 125.005 587.11C126.405 586.643 127.431 586.013 128.085 585.22C128.738 584.427 129.065 583.517 129.065 582.49C129.065 581.183 128.551 580.157 127.525 579.41C126.498 578.617 125.145 577.987 123.465 577.52C121.785 577.007 119.918 576.54 117.865 576.12C115.858 575.653 113.828 575.093 111.775 574.44C109.768 573.787 107.925 572.947 106.245 571.92C104.565 570.893 103.188 569.54 102.115 567.86C101.088 566.18 100.575 564.033 100.575 561.42C100.575 558.62 101.321 556.077 102.815 553.79C104.355 551.457 106.641 549.613 109.675 548.26C112.755 546.86 116.605 546.16 121.225 546.16C124.305 546.16 127.338 546.533 130.325 547.28C133.311 547.98 135.948 549.053 138.235 550.5L134.735 559.11C132.448 557.803 130.161 556.847 127.875 556.24C125.588 555.587 123.348 555.26 121.155 555.26C118.961 555.26 117.165 555.517 115.765 556.03C114.365 556.543 113.361 557.22 112.755 558.06C112.148 558.853 111.845 559.787 111.845 560.86C111.845 562.12 112.358 563.147 113.385 563.94C114.411 564.687 115.765 565.293 117.445 565.76C119.125 566.227 120.968 566.693 122.975 567.16C125.028 567.627 127.058 568.163 129.065 568.77C131.118 569.377 132.985 570.193 134.665 571.22C136.345 572.247 137.698 573.6 138.725 575.28C139.798 576.96 140.335 579.083 140.335 581.65C140.335 584.403 139.565 586.923 138.025 589.21C136.485 591.497 134.175 593.34 131.095 594.74C128.061 596.14 124.211 596.84 119.545 596.84ZM148.083 596V547H157.463L178.323 581.58H173.353L193.863 547H203.173L203.313 596H192.673L192.603 563.31H194.563L178.183 590.82H173.073L156.343 563.31H158.723V596H148.083ZM229.434 596L208.294 547H220.544L239.024 590.4H231.814L250.574 547H261.844L240.634 596H229.434ZM265.935 596V547H277.275V596H265.935ZM299.054 596V556.24H283.374V547H326.074V556.24H310.394V596H299.054Z" fill="#000000"/>
<path d="M419.938 74.7052L356.369 28.7945C350.403 24.4858 341.984 27.8795 340.674 35.1211L307.5 218.5L262.587 371.281C259.527 381.69 272.91 388.838 279.86 380.507L402.678 233.28C405.534 229.857 405.779 224.958 403.28 221.267L382.422 190.462C378.701 184.966 381.269 177.435 387.574 175.358L411.19 167.578C415.013 166.319 417.709 162.89 418.03 158.878L424.051 83.6095C424.33 80.1266 422.77 76.7509 419.938 74.7052Z" fill="#000000"/>
<path d="M4.562 74.7052L67.796 29.0362C73.8434 24.6687 82.3711 28.2208 83.5296 35.5899L111.385 212.767C111.462 213.255 111.574 213.737 111.722 214.208L160.394 369.35C163.672 379.798 150.188 387.158 143.174 378.749L21.8216 233.28C18.9664 229.857 18.7211 224.958 21.22 221.267L42.0775 190.462C45.7993 184.966 43.2307 177.435 36.9258 175.358L13.3097 167.578C9.48657 166.319 6.79123 162.89 6.47025 158.878L0.448761 83.6095C0.170135 80.1266 1.72951 76.7509 4.562 74.7052Z" fill="#000000"/>
<path d="M227.557 30.5H194.513C188.101 30.5 183.345 36.4505 184.759 42.7052L194.512 85.8406C194.833 87.263 194.84 88.7385 194.531 90.1637L154.429 275.214C153.837 277.946 154.415 280.801 156.024 283.087L202.428 349.029C206.381 354.646 214.691 354.698 218.713 349.129L266.354 283.163C268.036 280.835 268.635 277.895 267.999 275.093L226.04 90.3789C225.685 88.8159 225.711 87.1904 226.116 85.6395L237.233 43.0242C238.886 36.6884 234.105 30.5 227.557 30.5Z" fill="#000000"/>
<path d="M260.037 23.6577L303.894 5.00955C309.493 2.62906 315.902 5.75737 317.469 11.6356L321.485 26.6935C322.137 29.1397 321.837 31.7422 320.646 33.976L292.577 86.6053C288.582 94.0956 277.66 93.5154 274.481 85.644L254.677 36.605C252.636 31.5498 255.019 25.791 260.037 23.6577Z" fill="#000000"/>
<path d="M162.463 23.6577L118.606 5.00955C113.007 2.62906 106.598 5.75737 105.031 11.6356L101.015 26.6935C100.363 29.1397 100.663 31.7422 101.854 33.976L129.923 86.6053C133.918 94.0956 144.84 93.5154 148.019 85.644L167.823 36.605C169.864 31.5498 167.481 25.791 162.463 23.6577Z" fill="#000000"/>
</svg>
